<?xml version="1.0" encoding="UTF-8" standalone="no"?>
<svg width="138px" height="30px" viewBox="0 0 138 30" version="1.1" xmlns="http://www.w3.org/2000/svg" xmlns:xlink="http://www.w3.org/1999/xlink">
    <!-- Generator: Sketch 48 (47235) - http://www.bohemiancoding.com/sketch -->
    <title>main_logo_DT</title>
    <desc>Created with Sketch.</desc>
    <defs></defs>
    <style>
        .hoveff{
            fill:#314559;
            animation: colorSwap 1s infinite;
            animation-direction: alternate;
            animation-timing-function: linear;
        }
        .hoveff2{
            fill:#314559;
        }
        .hoveff:hover{
            fill:lightskyblue;
        }
        @keyframes colorSwap{
            from{
                fill:#314559;
            }
            to{
                fill:lightskyblue;
            }
        }
    </style>
    <g id="DT_registerpage1" stroke="none" stroke-width="1" fill="none" fill-rule="evenodd" transform="translate(-24.000000, -15.000000)">
        <g id="HEADER">
            <g id="main_logo_DT" transform="translate(24.000000, 15.000000)">
            <!-- T -->
                <polygon class="hoveff" id="Fill-1"  points="68.1756487 12.2223265 70.2699601 12.2223265 70.5434132 12.2223265 70.5963074 11.9651823 70.9471058 10.2571442 71 10 70.7270459 10 68.6327345 10 63.7669661 10 62.2225549 10 61.6726547 10 61 10 62.8298403 12.2223265 63.0873253 12.2223265 64.3887226 12.2223265 63.5369261 16.3234949 62.8298403 19.743325 62.7764471 20 63.0499002 20 65.0903194 20 65.4850299 20 65.5379242 19.743325 66.246008 16.3234949 67.0973054 12.2223265"></polygon>
                <!-- E -->
                <polygon id="Fill-2" class="hoveff" points="78.9091469 20 79.1682535 20 79.218938 19.7433371 79.510729 18.2568506 79.6158875 17.7688626 73.8369097 17.7688626 74.191701 15.9309309 79.1369902 15.9309309 79.5751504 13.6946321 74.6293875 13.6946321 74.9135995 12.2231607 80.5604187 12.2226914 81 10 80.724788 10 79.3198333 10 73.7753304 10 73.2234854 10 72.9639051 10 72.9132206 10.2571321 72.6138506 11.7820946 71.3576335 18.1775526 71.0502108 19.7433371 71 20 71.2591066 20 72.2192696 20 74.7875989 20"></polygon>
                <!-- A -->
                <path d="M85.4395092,15.8511637 L87.7231902,12.21753 L88.4770552,15.8511637 L85.4395092,15.8511637 Z M90.2866258,13.0982545 L90.0692025,12.2212838 L89.5543558,10.1468656 L89.5180368,10 L89.3349693,10 L86.7548466,10 L80,20 L80.5246626,20 L82.4250307,20 L82.6601227,20 L82.8323926,20 L84.077546,18.0184872 L84.2311656,17.7744932 L88.8755828,17.7744932 L88.926135,18.0184872 L89.3374233,20 L89.5386503,20 L89.8331288,20 L91.6564417,20 L92,20 L91.927362,19.706738 L90.2866258,13.0982545 Z" id="Fill-3" class="hoveff"></path>
                <!-- D -->
                <g id="Group-6" stroke-width="1" transform="translate(0.000000, 10.000000)" class="hoveff">
                    <path d="M8.34801385,5.24896769 C8.00749077,7.00166 6.67449077,8.08713692 4.93992154,8.08713692 L2.99502923,8.08713692 L4.09958308,2.41079846 L6.04447538,2.41079846 C7.77904462,2.41079846 8.68901385,3.49722923 8.34801385,5.24896769 M6.46512154,0.176413846 L4.77919846,0.176413846 L4.55122923,0.176413846 L3.63172154,0.176413846 L2.49330615,0.176413846 L2.23195231,0.176413846 L-4.76923077e-05,0.176413846 L1.74930615,2.43369077 L1.79270615,2.43369077 L0.796890769,7.55298308 L0.305183077,10.0797215 L0.254152308,10.3405985 L0.515506154,10.3405985 L1.15315231,10.3405985 L4.48779846,10.3405985 C8.10907538,10.3405985 10.1126292,8.27075231 10.7001985,5.24896769 C11.2810908,2.26533692 9.35622923,0.176413846 6.46512154,0.176413846" id="Fill-4"></path>
                </g>
                <!-- R -->
                <path d="M19.3533504,13.6535123 C19.1924343,14.4793768 18.4999789,15.127399 17.4800616,15.127399 L15.1493583,15.127399 L15.5828466,12.8966262 L15.603958,12.8966262 L15.7371947,12.2124724 L18.0467866,12.2124724 C19.0671731,12.2124724 19.5137974,12.8276477 19.3533504,13.6535123 M18.7153157,10 L16.0974967,10 L14.2021581,10 L13.9450677,10 L13.8953385,10.256675 L13.4017999,12.7933931 L12.3110419,18.3994181 L12.0501983,19.7437943 L12,20 L12.2570905,20 L13.8709431,20 L14.1280335,20 L14.1777627,19.7437943 L14.4395446,18.3994181 L14.6454985,17.3394022 L17.2140575,17.3394022 C17.2872438,17.3394022 17.3791959,17.3394022 17.5110251,17.3211018 L18.3095068,20 L18.549239,20 L20.3469957,20 L20.6463091,20 L19.5733786,16.7157806 C20.7368537,16.1099901 21.6737326,14.9725494 21.9308231,13.6511661 C22.3342863,11.5780583 20.9353013,10 18.7153157,10" id="Fill-7" class="hoveff"></path>
                <!-- E -->
                <polygon id="Fill-9" class="hoveff" points="23.2192696 20 25.7875989 20 29.9096206 20 30.1687272 20 30.2194117 19.7433371 30.5112027 18.2568506 30.6158875 17.7688626 24.8369097 17.7688626 25.191701 15.9309309 30.1374639 15.9309309 30.5751504 13.6946321 25.6293875 13.6946321 25.9135995 12.2231607 31.5604187 12.2226914 32 10 31.7252617 10 30.3198333 10 24.7753304 10 24.2234854 10 23.9643788 10 23.9132206 10.2571321 23.6138506 11.7820946 22.3576335 18.1775526 22.0502108 19.7433371 22 20 22.2591066 20"></polygon>
                <!-- M -->
                <path d="M56.5636739,10 L56.364364,10 L55.6679354,10 L55.4681631,10 L55.4251565,10 L55.2253842,10 L55.1046884,10.201295 L55.104226,10.2022335 L53.0856929,13.5599662 L51.0412635,17.1025713 L50.337436,13.5599662 L49.4865538,10 L49.2840068,10 L47.5970404,10 L47.1683623,10 L46.9154098,10 L46.8659291,10.2571321 L46.6966776,11.1402027 L45.5382755,17.1795233 L45.0471685,19.7433371 L45,19.9896772 L47.0402675,19.9896772 L47.2599246,19.9896772 L48.25,14.3576389 L49.3774189,19.8160661 C49.4070148,19.9446321 49.5055137,20 49.6317587,20 L49.8800868,20 L50.8613759,20 L51.109704,20 L51.5,20 L55.0487336,13.9813251 L54.5997083,15.9783221 L54.3587792,17.2372372 L53.8288275,20 L53.8380763,20 L53.9851309,20 L54.2385458,20 L55.829788,20 L56.0827405,20 L56.1322211,19.7433371 L56.6418256,17.0842718 L57.7484348,11.314283 L57.9509818,10.2571321 L58,10 L57.7470475,10 L56.5636739,10 Z" id="Fill-11" class="hoveff"></path>
                <!-- TEAM -M -->
                <path d="M105.563674,10 L105.364364,10 L104.667935,10 L104.468625,10 L104.424694,10 L104.225384,10 L104.104688,10.201295 L104.104226,10.2022335 L102.085693,13.5599662 L100.041264,17.1025713 L99.3378984,13.5599662 L98.4865538,10 L98.2840068,10 L96.5970404,10 L96.1683623,10 L95.9154098,10 L95.8659291,10.2571321 L95.6966776,11.1402027 L94.5387379,17.1795233 L94.0471685,19.7433371 L94,19.9896772 L96.0407299,19.9896772 L96.260387,19.9896772 L97.2504624,14.3576389 L98.3778813,19.8160661 C98.4070148,19.9446321 98.5055137,20 98.6317587,20 L98.8800868,20 L99.8613759,20 L100.109704,20 L100.5,20 L104.048734,13.9813251 L103.599708,15.9783221 L103.358779,17.2372372 L102.828828,20 L102.838076,20 L102.985131,20 L103.238546,20 L104.829788,20 L105.08274,20 L105.132221,19.7433371 L105.641826,17.0842718 L106.748435,11.314283 L106.950982,10.2571321 L107,10 L106.747048,10 L105.563674,10 Z" id="Fill-13" class="hoveff"></path>
                <!-- A -->
                <path d="M37.4395092,15.8511637 L39.7231902,12.21753 L40.4770552,15.8511637 L37.4395092,15.8511637 Z M44,20 L43.927362,19.706738 L42.2866258,13.0977853 L42.0692025,12.2212838 L41.5543558,10.1468656 L41.5180368,10 L41.3344785,10 L38.7548466,10 L32,20 L32.5246626,20 L34.4245399,20 L34.6596319,20 L34.8319018,20 L36.077546,18.0184872 L36.2306748,17.774024 L40.8755828,17.774024 L40.926135,18.0184872 L41.3374233,20 L41.5381595,20 L41.832638,20 L43.6564417,20 L44,20 Z" id="Fill-15" class="hoveff"></path>
                <!-- Star D Curve -->
                <path d="M123.846594,0 L123.90391,9.84511618 L134.598682,9.79182911 L123.846594,17.647771 L123.846594,25.7157335 L114.971477,19.7274909 L100,30 L121.339765,30 C127.995514,30 134.513532,25.0063538 136.450893,18.6303949 L137.72839,12.565068 C139.18489,5.64738551 134.637699,0 127.584592,0 L123.846594,0 Z" id="Fill-17" class="hoveff2"></path>
                <polygon id="Fill-19" fill="#00CCFF" points="110.734398 10 116.409287 10 118 8 109 8"></polygon>
                <polygon id="Fill-21" fill="#00CCFF" points="107.706908 6 119.233616 6 121 4 106 4"></polygon>
                <polygon id="Fill-23" fill="#00CCFF" points="103 0 104.676357 2 122.156421 2 124 0"></polygon>
            </g>
        </g>
    </g>
</svg>